#!OML:ASF I:\salsa\salsa 7_09\Patient 1\Session 1\dancermale.ASF
:FULLY-SPECIFIED
:DEGREES
1582
root -0.35988 16.4045 -5.40382 -538.059 172.354 179.667
lowerback 7.57905 -5.58814 -3.80066
upperback 1.48416 -7.6774 1.98819
thorax -1.90821 -3.81805 4.82238
lowerneck -8.01489 -8.70159 -7.94717
upperneck 16.4079 -11.1771 2.5193
head 6.92907 -5.67571 1.11002
rclavicle -4.87768e-014 1.98785e-016
rhumerus -47.6959 -17.078 -71.6589
rradius 71.4676
rwrist -8.42532
rhand -36.0188 -26.7664
rfingers 7.12502
rthumb -9.12795 -56.5489
lclavicle -4.87768e-014 1.98785e-016
lhumerus -12.7228 -47.361 113.281
lradius 76.713
lwrist 88.9162
lhand -38.7933 38.7823
lfingers 7.12502
lthumb -11.8043 68.4297
rfemur -26.624 0.944663 3.8517
rtibia 37.2511
rfoot -9.17332 -15.9123
rtoes -25.0127
lfemur -17.6471 -0.208232 -4.96218
ltibia 46.6296
lfoot -25.407 -9.00043
ltoes -22.2373
1583
root -0.541204 16.3238 -5.3826 -537.179 172.497 180.721
lowerback 7.81294 -5.29665 -3.68908
upperback 1.34289 -7.2976 1.58375
thorax -2.29292 -3.61204 4.35755
lowerneck -8.18017 -8.46031 -7.63517
upperneck 15.9289 -10.831 2.35299
head 6.75613 -5.49915 1.04883
rclavicle 2.23012e-014 -2.05742e-014
rhumerus -44.6619 -17.9995 -70.925
rradius 71.3493
rwrist -9.8823
rhand -37.7622 -27.361
rfingers 7.12502
rthumb -10.8099 -57.0628
lclavicle 2.23012e-014 -2.05742e-014
lhumerus -10.5262 -47.1764 111.849
lradius 76.2443
lwrist 87.5135
lhand -37.5338 39.4355
lfingers 7.12502
lthumb -10.5896 69.1487
rfemur -30.12 -1.37452 3.39038
rtibia 41.7661
rfoot -11.0954 -14.5858
rtoes -24.3375
lfemur -20.8634 1.87792 -4.91015
ltibia 50.6383
lfoot -22.2785 -13.2164
ltoes -17.4341
1584
root -0.712406 16.2564 -5.36348 -536.474 172.618 181.374
lowerback 8.35761 -5.04743 -3.40864
upperback 1.14824 -6.96077 1.51799
thorax -2.87183 -3.42444 4.18362
lowerneck -8.6014 -8.15402 -7.51339
upperneck 15.769 -10.3215 1.96268
head 6.72375 -5.27039 0.943654
rclavicle 4.2043e-014 -5.76476e-015
rhumerus -41.2028 -18.5952 -69.6668
rradius 70.8184
rwrist -11.4843
rhand -39.4402 -27.7047
rfingers 7.12502
rthumb -12.4281 -57.3153
lclavicle 4.2043e-014 -5.76476e-015
lhumerus -8.32963 -46.5238 111.04
lradius 75.6346
lwrist 84.8104
lhand -35.5614 39.9836
lfingers 7.12502
lthumb -8.68658 69.7849
rfemur -32.3749 -3.36351 3.45328
rtibia 44.3595
rfoot -12.1055 -13.6109
rtoes -25.4323
lfemur -24.1464 3.92351 -4.50722
ltibia 54.4556
lfoot -19.0415 -16.3407
ltoes -12.5897
1585
root -0.880822 16.1987 -5.34604 -536.191 172.746 182.031
lowerback 9.46625 -4.93635 -3.58478
upperback 0.934112 -6.86086 1.59337
thorax -3.68884 -3.34165 4.4823
lowerneck -8.88348 -7.65772 -7.11953
upperneck 15.7024 -9.54293 1.16741
head 6.65378 -4.93218 0.70002
rclavicle -2.73826e-014 1.64991e-014
rhumerus -37.3853 -18.6362 -68.4592
rradius 69.9043
rwrist -13.2058
rhand -41.2359 -28.2384
rfingers 7.12502
rthumb -14.159 -57.7359
lclavicle -2.73826e-014 1.64991e-014
lhumerus -6.19879 -45.2649 110.449
lradius 74.9724
lwrist 81.8932
lhand -34.191 40.4363
lfingers 7.12502
lthumb -7.36394 70.2881
rfemur -33.0633 -5.09147 3.47153
rtibia 45.0264
rfoot -12.438 -12.7066
rtoes -26.729
lfemur -26.3184 5.95264 -4.11558
ltibia 56.8828
lfoot -15.4923 -18.6117
ltoes -7.30949
1586
root -1.03716 16.1395 -5.32887 -535.853 172.868 182.62
lowerback 10.1946 -4.8735 -3.77649
upperback 0.853395 -6.81366 1.74483
thorax -4.14095 -3.29646 4.82368
lowerneck -9.21648 -7.13014 -6.85566
upperneck 15.6318 -8.71319 0.441582
head 6.60884 -4.57149 0.499236
rclavicle 2.36057e-014 7.95139e-016
rhumerus -32.9189 -18.7538 -67.2777
rradius 68.5501
rwrist -15.0612
rhand -42.9748 -28.6335
rfingers 7.12502
rthumb -15.8341 -58.006
lclavicle 2.36057e-014 7.95139e-016
lhumerus -3.55062 -43.8923 109.692
lradius 74.163
lwrist 79.7668
lhand -33.5468 40.5506
lfingers 7.12502
lthumb -6.74212 70.4232
rfemur -33.6878 -6.66752 3.55029
rtibia 45.6389
rfoot -12.9539 -12.0892
rtoes -28.4026
lfemur -28.0236 8.04996 -3.60833
ltibia 58.0971
lfoot -13.1417 -18.6443
ltoes -4.23633
1587
root -1.17734 16.0748 -5.31798 -535.241 173.143 183.14
lowerback 10.3715 -4.79037 -3.79558
upperback 0.827254 -6.70492 1.86195
thorax -4.26147 -3.2364 4.9646
lowerneck -9.54612 -6.62369 -6.60462
upperneck 15.4914 -7.9267 -0.205513
head 6.55476 -4.2261 0.321426
rclavicle 2.18663e-015 -3.97569e-016
rhumerus -28.0611 -19.2742 -66.2866
rradius 67.0761
rwrist -17.0992
rhand -44.4549 -28.8215
rfingers 7.12502
rthumb -17.259 -58.0751
lclavicle 2.18663e-015 -3.97569e-016
lhumerus -0.602194 -42.61 108.743
lradius 73.3138
lwrist 78.5452
lhand -33.2581 40.6505
lfingers 7.12502
lthumb -6.46338 70.5318
rfemur -34.6541 -8.11325 3.74603
rtibia 46.3713
rfoot -13.5223 -11.6069
rtoes -30.5414
lfemur -29.5022 10.0859 -3.09774
ltibia 58.4112
lfoot -12.1845 -16.7211
ltoes -2.09056
1588
root -1.29603 16.0285 -5.31267 -534.659 173.559 184.001
lowerback 10.7542 -4.66528 -4.13774
upperback 0.719991 -6.58993 1.91586
thorax -4.55423 -3.15917 5.24448
lowerneck -9.8094 -6.12836 -6.42119
upperneck 15.3382 -7.13688 -0.954128
head 6.49204 -3.89172 0.123791
rclavicle 1.58034e-014 1.23246e-014
rhumerus -23.011 -19.8633 -65.3633
rradius 65.4523
rwrist -19.048
rhand -45.7018 -28.7419
rfingers 7.12502
rthumb -18.4588 -57.8861
lclavicle 1.58034e-014 1.23246e-014
lhumerus 2.26085 -41.1172 108.16
lradius 72.3899
lwrist 77.9749
lhand -33.1466 40.6167
lfingers 7.12502
lthumb -6.35575 70.5013
rfemur -35.9981 -9.36484 3.4822
rtibia 47.5467
rfoot -14.1233 -11.0514
rtoes -31.4882
lfemur -30.1524 11.5571 -2.96265
ltibia 57.511
lfoot -10.8521 -14.4744
ltoes 1.62076
1589
root -1.39674 16.0059 -5.31034 -534.504 174.021 185.096
lowerback 11.6825 -4.57165 -4.57102
upperback 0.675389 -6.5593 1.81536
thorax -5.08427 -3.11123 5.47681
lowerneck -9.97246 -5.58172 -6.32677
upperneck 15.0813 -6.28337 -1.65672
head 6.39033 -3.5264 -0.0357509
rclavicle -3.12092e-014 9.54166e-015
rhumerus -17.8138 -20.5107 -64.7426
rradius 63.6319
rwrist -20.7813
rhand -46.5356 -27.6093
rfingers 7.12502
rthumb -19.2608 -56.6755
lclavicle -3.12092e-014 9.54166e-015
lhumerus 4.98632 -39.2673 107.822
lradius 71.3457
lwrist 77.5253
lhand -32.9282 40.6807
lfingers 7.12502
lthumb -6.14489 70.5716
rfemur -37.1578 -10.3069 2.82245
rtibia 48.9359
rfoot -14.6718 -10.5985
rtoes -32.212
lfemur -29.7937 12.0588 -2.98665
ltibia 55.6393
lfoot -9.36763 -11.7178
ltoes 6.38943
1590
root -1.48838 15.9905 -5.31125 -534.369 174.48 186.159
lowerback 12.5303 -4.47722 -4.8527
upperback 0.710546 -6.51795 1.59976
thorax -5.51759 -3.06562 5.4878
lowerneck -10.1504 -5.04284 -6.04352
upperneck 14.6689 -5.48354 -2.3306
head 6.24412 -3.16993 -0.219866
rclavicle -2.38542e-014 7.95139e-015
rhumerus -12.4322 -21.4636 -64.5592
rradius 61.5677
rwrist -21.9068
rhand -47.0698 -25.7879
rfingers 7.12502
rthumb -19.7744 -54.8021
lclavicle -2.38542e-014 7.95139e-015
lhumerus 7.69612 -37.62 107.495
lradius 70.0431
lwrist 76.5341
lhand -32.2747 40.5815
lfingers 7.12502
lthumb -5.51393 70.4897
rfemur -37.9122 -11.0168 2.17906
rtibia 49.7449
rfoot -14.9187 -10.4375
rtoes -33.4468
lfemur -29.0909 11.9013 -2.91134
ltibia 53.2415
lfoot -8.31757 -8.57666
ltoes 9.20809
